# xmcd
#
# Track frame offsets: 
#        150
#        4785
#        25523
#        47975
#        72565
#        93797
#        112470
#        122250
#        151197
#        171757
#        194970
#        218843
#        235975
#        259742
#        282512
#        298563
#
# Disc length: 4188 seconds
#
# Revision: 0
# Processed by: cddbd v1.5.2PL0 Copyright (c) Steve Scherf et al.
# Submitted via: ExactAudioCopy v0.95b1
#
DISCID=ec105a10
DTITLE=Gregor Hilden  - Gregor Hilden  ¹1
DYEAR=2006
DGENRE=Blues
TTITLE0=Intro
TTITLE1=I Wouldnt Treat A Dog
TTITLE2=The Ghetto
TTITLE3=Impressions
TTITLE4=Blues After Midnight
TTITLE5=Song For Larry C.
TTITLE6=Apostle
TTITLE7=The Blues Is Still Around
TTITLE8=Trust Me
TTITLE9=59 Blues Affair
TTITLE10=Goodbye Pork Pie Hat
TTITLE11=Ocean Breeze Motel
TTITLE12=Ode To Billy Joe
TTITLE13=Leaving This Town
TTITLE14=The Rain Blues
TTITLE15=Sweet Rain
EXTD=
EXTT0=
EXTT1=
EXTT2=
EXTT3=
EXTT4=
EXTT5=
EXTT6=
EXTT7=
EXTT8=
EXTT9=
EXTT10=
EXTT11=
EXTT12=
EXTT13=
EXTT14=
EXTT15=
PLAYORDER=
